<svg width="100%" height="100%" viewBox="0 0 20 20" fill="none" xmlns="http://www.w3.org/2000/svg">
<mask id="mask0_5021_299" style="mask-type:luminance" maskUnits="userSpaceOnUse" x="0" y="0" width="20" height="20">
<path d="M20 0H0V19.3548H20V0Z" fill="white"/>
</mask>
<g mask="url(#mask0_5021_299)">
<path d="M7.61284 6.52148H6.41406V9.31332H7.61284C8.00193 9.31332 8.3541 9.1571 8.60926 8.90452C8.86406 8.65174 9.0219 8.30287 9.0219 7.91742C9.0219 7.14645 8.39106 6.52148 7.61284 6.52148Z" fill="black"/>
<path d="M16.4082 0H3.59181C1.60822 0 0 1.5932 0 3.55829V15.7965C0 17.7618 1.60822 19.3548 3.59181 19.3548H16.408C18.3918 19.3548 19.9998 17.7616 19.9998 15.7965V3.55829C19.9998 1.59304 18.3918 0 16.4082 0ZM9.9561 10.0089C9.41561 10.5442 8.66903 10.8755 7.84435 10.8755H6.41432V13.5631H4.58468V4.95848H7.84435C9.49358 4.95848 10.8306 6.2831 10.8306 7.9169C10.8306 8.73374 10.4964 9.47348 9.9561 10.0089ZM15.8475 13.1307C15.3693 13.56 14.7052 13.7431 14.0739 13.7907C13.9982 13.7965 13.9225 13.8 13.8466 13.8016C13.1451 13.8158 12.4076 13.6679 11.7701 13.3762C11.7633 13.3731 11.7565 13.3699 11.7497 13.3669C11.7509 12.8602 11.7518 12.3537 11.753 11.8471C11.753 11.8747 12.2601 11.9962 12.323 12.0167C12.9017 12.2047 13.5925 12.3456 14.2022 12.2682C14.331 12.2519 14.4633 12.2201 14.563 12.1379C14.9391 11.8285 14.5579 11.4437 14.2514 11.296C13.9191 11.1359 13.561 11.0347 13.2216 10.89C12.8998 10.753 12.5928 10.5751 12.3365 10.3385C11.4886 9.55568 11.5215 8.24129 12.3858 7.48106C12.8751 7.05068 13.5358 6.914 14.1738 6.88616C14.834 6.85739 15.5005 6.97394 16.1115 7.22303C16.1349 7.23261 16.1598 7.24364 16.1729 7.26506C16.184 7.28345 16.1843 7.306 16.1843 7.32726C16.185 7.84448 16.1856 8.36184 16.1861 8.87906C16.0865 8.79481 15.9505 8.75997 15.8324 8.70881C15.7044 8.65332 15.5736 8.60455 15.4407 8.56219C14.9697 8.41268 14.3583 8.27471 13.8749 8.43874C13.6974 8.49903 13.5649 8.62439 13.5649 8.81926C13.5649 9.12065 13.8631 9.26565 14.1068 9.37581C14.4088 9.51219 14.7307 9.59516 15.0319 9.73345C15.8136 10.0927 16.5404 10.7089 16.5404 11.6333C16.5404 12.2044 16.2715 12.7494 15.8472 13.1303L15.8475 13.1307Z" fill="black"/>
</g>
</svg>
