<svg width="40" height="39" viewBox="0 0 40 39" fill="none" xmlns="http://www.w3.org/2000/svg">
<mask id="mask0_5020_34" style="mask-type:luminance" maskUnits="userSpaceOnUse" x="0" y="0" width="40" height="39">
<path d="M40 0H0V38.7097H40V0Z" fill="white"/>
</mask>
<g mask="url(#mask0_5020_34)">
<path d="M15.2257 13.043H12.8281V18.6266H15.2257C16.0039 18.6266 16.7082 18.3142 17.2185 17.809C17.7281 17.3035 18.0438 16.6057 18.0438 15.8348C18.0438 14.2929 16.7821 13.043 15.2257 13.043Z" fill="white"/>
<path d="M32.8164 0H7.18361C3.21643 0 0 3.18639 0 7.11658V31.5931C0 35.5236 3.21643 38.7097 7.18361 38.7097H32.8161C36.7835 38.7097 39.9997 35.5233 39.9997 31.5931V7.11658C39.9997 3.18608 36.7835 0 32.8164 0ZM19.9122 20.0179C18.8312 21.0884 17.3381 21.751 15.6887 21.751H12.8286V27.1261H9.16935V9.91697H15.6887C18.9872 9.91697 21.6613 12.5662 21.6613 15.8338C21.6613 17.4675 20.9928 18.947 19.9122 20.0179ZM31.695 26.2615C30.7386 27.12 29.4105 27.4861 28.1477 27.5814C27.9964 27.593 27.845 27.6 27.6933 27.6032C26.2902 27.6316 24.8152 27.3359 23.5402 26.7523C23.5266 26.7462 23.513 26.7398 23.4995 26.7337C23.5017 25.7205 23.5037 24.7074 23.5059 23.6941C23.5059 23.7494 24.5201 23.9925 24.646 24.0334C25.8035 24.4094 27.1849 24.6912 28.4044 24.5364C28.6619 24.5037 28.9266 24.4401 29.1261 24.2757C29.8781 23.657 29.1157 22.8874 28.5028 22.5919C27.8383 22.2719 27.122 22.0694 26.4432 21.7801C25.7996 21.506 25.1857 21.1501 24.6731 20.6769C22.9772 19.1114 23.0431 16.4826 24.7715 14.9621C25.7502 14.1014 27.0716 13.828 28.3475 13.7723C29.668 13.7148 31.0011 13.9479 32.2231 14.4461C32.2699 14.4652 32.3196 14.4873 32.3457 14.5301C32.368 14.5669 32.3686 14.612 32.3686 14.6545C32.3699 15.689 32.3712 16.7237 32.3722 17.7581C32.1731 17.5896 31.901 17.5199 31.6647 17.4176C31.4088 17.3066 31.1473 17.2091 30.8814 17.1244C29.9395 16.8254 28.7165 16.5494 27.7498 16.8775C27.3947 16.9981 27.1297 17.2488 27.1297 17.6385C27.1297 18.2413 27.7262 18.5313 28.2136 18.7516C28.8175 19.0244 29.4614 19.1903 30.0637 19.4669C31.6273 20.1854 33.0807 21.4177 33.0807 23.2666C33.0807 24.4088 32.543 25.4988 31.6944 26.2605L31.695 26.2615Z" fill="white"/>
</g>
</svg>
